<?xml version="1.0" encoding="utf-8"?><svg version="1.1" width="340" height="200" viewBox="-13.071428571428571 -10.071428571428571 12.142857142857142 7.1428571428571432" xmlns="http://www.w3.org/2000/svg"><rect x="-13.071428571428571" y="-10.071428571428571" width="12.142857142857142" height="7.1428571428571432" fill="lightgray" /><g stroke-width="0.8928571428571429" stroke="black" stroke-linecap="round"><line x1="-7" y1="-4" x2="-2" y2="-4" /><line x1="-7" y1="-4" x2="-3" y2="-7" /><line x1="-7" y1="-4" x2="-4" y2="-8" /><line x1="-7" y1="-4" x2="-7" y2="-9" /><line x1="-7" y1="-4" x2="-10" y2="-8" /><line x1="-7" y1="-4" x2="-11" y2="-7" /><line x1="-7" y1="-4" x2="-12" y2="-4" /><line x1="-2" y1="-4" x2="-3" y2="-7" /><line x1="-3" y1="-7" x2="-4" y2="-8" /><line x1="-4" y1="-8" x2="-7" y2="-9" /><line x1="-7" y1="-9" x2="-10" y2="-8" /><line x1="-10" y1="-8" x2="-11" y2="-7" /><line x1="-11" y1="-7" x2="-12" y2="-4" /></g><g stroke-width="0.5357142857142857" stroke="darkgray" stroke-linecap="round"><line x1="-7" y1="-4" x2="-2" y2="-4" /><line x1="-7" y1="-4" x2="-3" y2="-7" /><line x1="-7" y1="-4" x2="-4" y2="-8" /><line x1="-7" y1="-4" x2="-7" y2="-9" /><line x1="-7" y1="-4" x2="-10" y2="-8" /><line x1="-7" y1="-4" x2="-11" y2="-7" /><line x1="-7" y1="-4" x2="-12" y2="-4" /><line x1="-2" y1="-4" x2="-3" y2="-7" /><line x1="-3" y1="-7" x2="-4" y2="-8" /><line x1="-4" y1="-8" x2="-7" y2="-9" /><line x1="-7" y1="-9" x2="-10" y2="-8" /><line x1="-10" y1="-8" x2="-11" y2="-7" /><line x1="-11" y1="-7" x2="-12" y2="-4" /></g><g fill="black"><circle cx="-7" cy="-4" r="1.0714285714285714" /><circle cx="-2" cy="-4" r="1.0714285714285714" /><circle cx="-3" cy="-7" r="1.0714285714285714" /><circle cx="-4" cy="-8" r="1.0714285714285714" /><circle cx="-7" cy="-9" r="1.0714285714285714" /><circle cx="-10" cy="-8" r="1.0714285714285714" /><circle cx="-11" cy="-7" r="1.0714285714285714" /><circle cx="-12" cy="-4" r="1.0714285714285714" /></g><g fill="white"><circle cx="-7" cy="-4" r="0.8928571428571429" /><circle cx="-2" cy="-4" r="0.8928571428571429" /><circle cx="-3" cy="-7" r="0.8928571428571429" /><circle cx="-4" cy="-8" r="0.8928571428571429" /><circle cx="-7" cy="-9" r="0.8928571428571429" /><circle cx="-10" cy="-8" r="0.8928571428571429" /><circle cx="-11" cy="-7" r="0.8928571428571429" /><circle cx="-12" cy="-4" r="0.8928571428571429" /></g></svg>