<?xml version="1.0" encoding="utf-8"?><svg version="1.1" width="640" height="350" viewBox="-12.517241379310345 -9.5172413793103452 11.03448275862069 6.0344827586206895" xmlns="http://www.w3.org/2000/svg"><rect x="-12.517241379310345" y="-9.5172413793103452" width="11.03448275862069" height="6.0344827586206895" fill="lightgray" /><g stroke-width="0.43103448275862066" stroke="black" stroke-linecap="round"><line x1="-7" y1="-4" x2="-2" y2="-4" /><line x1="-7" y1="-4" x2="-3" y2="-7" /><line x1="-7" y1="-4" x2="-4" y2="-8" /><line x1="-7" y1="-4" x2="-7" y2="-9" /><line x1="-7" y1="-4" x2="-10" y2="-8" /><line x1="-7" y1="-4" x2="-11" y2="-7" /><line x1="-7" y1="-4" x2="-12" y2="-4" /><line x1="-2" y1="-4" x2="-3" y2="-7" /><line x1="-3" y1="-7" x2="-4" y2="-8" /><line x1="-4" y1="-8" x2="-7" y2="-9" /><line x1="-7" y1="-9" x2="-10" y2="-8" /><line x1="-10" y1="-8" x2="-11" y2="-7" /><line x1="-11" y1="-7" x2="-12" y2="-4" /></g><g stroke-width="0.25862068965517243" stroke="darkgray" stroke-linecap="round"><line x1="-7" y1="-4" x2="-2" y2="-4" /><line x1="-7" y1="-4" x2="-3" y2="-7" /><line x1="-7" y1="-4" x2="-4" y2="-8" /><line x1="-7" y1="-4" x2="-7" y2="-9" /><line x1="-7" y1="-4" x2="-10" y2="-8" /><line x1="-7" y1="-4" x2="-11" y2="-7" /><line x1="-7" y1="-4" x2="-12" y2="-4" /><line x1="-2" y1="-4" x2="-3" y2="-7" /><line x1="-3" y1="-7" x2="-4" y2="-8" /><line x1="-4" y1="-8" x2="-7" y2="-9" /><line x1="-7" y1="-9" x2="-10" y2="-8" /><line x1="-10" y1="-8" x2="-11" y2="-7" /><line x1="-11" y1="-7" x2="-12" y2="-4" /></g><g fill="black"><circle cx="-7" cy="-4" r="0.51724137931034486" /><circle cx="-2" cy="-4" r="0.51724137931034486" /><circle cx="-3" cy="-7" r="0.51724137931034486" /><circle cx="-4" cy="-8" r="0.51724137931034486" /><circle cx="-7" cy="-9" r="0.51724137931034486" /><circle cx="-10" cy="-8" r="0.51724137931034486" /><circle cx="-11" cy="-7" r="0.51724137931034486" /><circle cx="-12" cy="-4" r="0.51724137931034486" /></g><g fill="white"><circle cx="-7" cy="-4" r="0.43103448275862066" /><circle cx="-2" cy="-4" r="0.43103448275862066" /><circle cx="-3" cy="-7" r="0.43103448275862066" /><circle cx="-4" cy="-8" r="0.43103448275862066" /><circle cx="-7" cy="-9" r="0.43103448275862066" /><circle cx="-10" cy="-8" r="0.43103448275862066" /><circle cx="-11" cy="-7" r="0.43103448275862066" /><circle cx="-12" cy="-4" r="0.43103448275862066" /></g></svg>