<?xml version="1.0" encoding="utf-8"?><svg version="1.1" width="800" height="582" viewBox="-1.0378378378378379 -1.0778378378378379 2.0756756756756758 1.5076756756756757" xmlns="http://www.w3.org/2000/svg"><rect x="-1.0378378378378379" y="-1.0778378378378379" width="2.0756756756756758" height="1.5076756756756757" fill="cornflowerblue" /><g stroke-width="0.064864864864864868" stroke="black" stroke-linecap="round"><line x1="0" y1="0" x2="0.93600000000000005" y2="0.35199999999999998" /><line x1="0" y1="0" x2="0.95999999999999996" y2="-0.28000000000000003" /><line x1="0" y1="0" x2="0.59999999999999998" y2="-0.80000000000000004" /><line x1="0" y1="0" x2="0" y2="-1" /><line x1="0" y1="0" x2="-0.59999999999999998" y2="-0.80000000000000004" /><line x1="0" y1="0" x2="-0.95999999999999996" y2="-0.28000000000000003" /><line x1="0" y1="0" x2="-0.93600000000000005" y2="0.35199999999999998" /><line x1="0.93600000000000005" y1="0.35199999999999998" x2="0.95999999999999996" y2="-0.28000000000000003" /><line x1="0.95999999999999996" y1="-0.28000000000000003" x2="0.59999999999999998" y2="-0.80000000000000004" /><line x1="0.59999999999999998" y1="-0.80000000000000004" x2="0" y2="-1" /><line x1="0" y1="-1" x2="-0.59999999999999998" y2="-0.80000000000000004" /><line x1="-0.59999999999999998" y1="-0.80000000000000004" x2="-0.95999999999999996" y2="-0.28000000000000003" /><line x1="-0.95999999999999996" y1="-0.28000000000000003" x2="-0.93600000000000005" y2="0.35199999999999998" /></g><g stroke-width="0.038918918918918917" stroke="darkgray" stroke-linecap="round"><line x1="0" y1="0" x2="0.93600000000000005" y2="0.35199999999999998" stroke="darkred" /><line x1="0" y1="0" x2="0.95999999999999996" y2="-0.28000000000000003" stroke="darkorange" /><line x1="0" y1="0" x2="0.59999999999999998" y2="-0.80000000000000004" stroke="gold" /><line x1="0" y1="0" x2="0" y2="-1" stroke="darkgreen" /><line x1="0" y1="0" x2="-0.59999999999999998" y2="-0.80000000000000004" stroke="darkblue" /><line x1="0" y1="0" x2="-0.95999999999999996" y2="-0.28000000000000003" stroke="purple" /><line x1="0" y1="0" x2="-0.93600000000000005" y2="0.35199999999999998" stroke="darkviolet" /><line x1="0.93600000000000005" y1="0.35199999999999998" x2="0.95999999999999996" y2="-0.28000000000000003" stroke="#F0F0F0" /><line x1="0.95999999999999996" y1="-0.28000000000000003" x2="0.59999999999999998" y2="-0.80000000000000004" stroke="#D0D0D0" /><line x1="0.59999999999999998" y1="-0.80000000000000004" x2="0" y2="-1" stroke="#B0B0B0" /><line x1="0" y1="-1" x2="-0.59999999999999998" y2="-0.80000000000000004" stroke="#909090" /><line x1="-0.59999999999999998" y1="-0.80000000000000004" x2="-0.95999999999999996" y2="-0.28000000000000003" stroke="#707070" /><line x1="-0.95999999999999996" y1="-0.28000000000000003" x2="-0.93600000000000005" y2="0.35199999999999998" stroke="#505050" /></g><g fill="black"><circle cx="0.93600000000000005" cy="0.35199999999999998" r="0.077837837837837834" /><circle cx="0.95999999999999996" cy="-0.28000000000000003" r="0.077837837837837834" /><circle cx="0.59999999999999998" cy="-0.80000000000000004" r="0.077837837837837834" /><circle cx="0" cy="-1" r="0.077837837837837834" /><circle cx="-0.59999999999999998" cy="-0.80000000000000004" r="0.077837837837837834" /><circle cx="-0.95999999999999996" cy="-0.28000000000000003" r="0.077837837837837834" /><circle cx="-0.93600000000000005" cy="0.35199999999999998" r="0.077837837837837834" /></g><g fill="white"><circle cx="0.93600000000000005" cy="0.35199999999999998" r="0.064864864864864868" fill="red" /><circle cx="0.95999999999999996" cy="-0.28000000000000003" r="0.064864864864864868" fill="orange" /><circle cx="0.59999999999999998" cy="-0.80000000000000004" r="0.064864864864864868" fill="yellow" /><circle cx="0" cy="-1" r="0.064864864864864868" fill="lightgreen" /><circle cx="-0.59999999999999998" cy="-0.80000000000000004" r="0.064864864864864868" fill="blue" /><circle cx="-0.95999999999999996" cy="-0.28000000000000003" r="0.064864864864864868" fill="indigo" /><circle cx="-0.93600000000000005" cy="0.35199999999999998" r="0.064864864864864868" fill="violet" /></g></svg>